<svg class="icon" version="1.1" xmlns="http://www.w3.org/2000/svg"
     width="40" height="40">
    <g transform="scale(0.0390625)">
        <path d="M169.55701135 259.24739747l517.91617373-91.29918229a57.45726118 57.45726118 0 0 1 66.56483502 46.59609956l105.23314458 596.83477572a57.45726118 57.45726118 0 0 1-46.5978871 66.5362342l-517.94656206 91.35638388a57.45726118 57.45726118 0 0 1-66.56483504-46.62648787l-105.2331446-596.80617491a57.45726118 57.45726118 0 0 1 46.59967467-66.56304748z"
              fill="#B2BAFF" ></path>
        <path d="M251.94882553 161.22523479l517.9751629-91.32778309a57.45726118 57.45726118 0 0 1 66.53623419 46.59788711l100.60696186 570.5470464a57.45726118 57.45726118 0 0 1-46.62648794 66.56483502l-517.91796123 91.29918226a57.45726118 57.45726118 0 0 1-66.56304748-46.59788707l-100.60696186-570.54883398a57.45726118 57.45726118 0 0 1 46.59609956-66.53444665z"
              fill="#FFFFFF" stroke="#3F3F3F"></path>
        <path d="M396.42587119 400.8214598l77.91042306 68.86183846 46.9428845-90.86838241 60.41565859-10.63056752L619.2441398 581.17823501l-61.47925161 10.83077329-21.31654915-120.91890717-45.18929667 88.48378896-75.12541817-67.25304227 21.31654914 120.91890717-61.62404324 10.85937411L338.25001438 411.07485403l58.17585681-10.22658095z m356.80775083-62.71444953l19.30555396 109.74134894 58.43505174-10.28378258-71.16241695 118.82032195-107.50333472-87.33439348 58.3778501-10.28378258-19.30555396-109.74313649 61.82424899-10.91657576z"
              fill="#D4237A"></path>
    </g>
</svg>